<?xml version="1.0" standalone="no"?>
<!DOCTYPE svg PUBLIC "-//W3C//DTD SVG 20010904//EN"
 "http://www.w3.org/TR/2001/REC-SVG-20010904/DTD/svg10.dtd">
<svg version="1.0" xmlns="http://www.w3.org/2000/svg"
 width="260.000000pt" height="260.000000pt" viewBox="0 0 260.000000 260.000000"
 preserveAspectRatio="xMidYMid meet">
<metadata>
Created by potrace 1.11, written by Peter Selinger 2001-2013
</metadata>
<g transform="translate(0.000000,260.000000) scale(0.100000,-0.100000)"
fill="#000000" stroke="none">
<path d="M1095 2584 c-156 -27 -330 -90 -454 -165 -34 -22 -67 -39 -72 -39 -5
0 -9 -3 -9 -8 0 -4 -26 -26 -58 -50 -52 -38 -171 -155 -215 -211 -46 -58 -87
-119 -87 -130 0 -6 -4 -11 -8 -11 -10 0 -82 -150 -111 -230 -95 -259 -100
-577 -13 -835 9 -27 17 -52 17 -55 1 -3 9 -23 19 -45 9 -22 17 -41 16 -43 0
-2 41 -79 72 -132 52 -91 171 -229 281 -326 79 -70 328 -214 370 -214 7 0 17
-4 22 -9 6 -6 21 -11 35 -13 14 -2 30 -6 35 -10 35 -21 215 -48 346 -52 100
-4 322 24 361 45 9 5 21 8 25 8 4 -1 21 3 36 9 16 7 34 12 40 12 17 0 277 130
277 139 0 4 14 15 32 26 35 20 74 52 126 102 19 18 38 33 43 33 5 0 9 3 9 8 0
4 21 30 45 57 92 100 195 271 241 396 59 161 83 311 79 489 -2 80 -6 156 -9
170 -3 14 -11 50 -17 80 -37 184 -147 406 -274 558 -161 192 -428 362 -660
419 -157 39 -401 51 -540 27z"/>
</g>
</svg>
